<svg width="32" height="32" viewBox="0 0 32 32" fill="none" xmlns="http://www.w3.org/2000/svg">
<path d="M23.6378 3.11108C24.4523 3.11108 25.2051 3.54404 25.6123 4.24686L31.2501 13.9753C31.6574 14.6781 31.6574 15.544 31.2501 16.2469L25.6123 25.9753C25.2051 26.6781 24.4523 27.1111 23.6378 27.1111H12.3623C11.5477 27.1111 10.795 26.6781 10.3877 25.9753L4.74993 16.2469C4.34264 15.544 4.34264 14.6781 4.74993 13.9753L10.3877 4.24686C10.795 3.54404 11.5477 3.11108 12.3623 3.11108L23.6378 3.11108Z" fill="url(#paint0_linear_307_7162)"/>
<g filter="url(#filter0_b_307_7162)">
<path d="M19.3231 5.33325C20.1244 5.33325 20.8647 5.76621 21.2653 6.46902L26.8107 16.1975C27.2113 16.9003 27.2113 17.7662 26.8107 18.469L21.2653 28.1975C20.8647 28.9003 20.1244 29.3333 19.3231 29.3333H8.23246C7.43123 29.3333 6.69086 28.9003 6.29025 28.1975L0.744918 18.469C0.344304 17.7662 0.344305 16.9003 0.744919 16.1975L6.29025 6.46902C6.69087 5.76621 7.43123 5.33325 8.23246 5.33325L19.3231 5.33325Z" fill="#D8E7FF" fill-opacity="0.5"/>
<path d="M20.8792 6.68912L26.4245 16.4176C26.7474 16.984 26.7474 17.6825 26.4245 18.2489L20.8792 27.9774C20.5567 28.5432 19.9628 28.8888 19.3231 28.8888H8.23246C7.5928 28.8888 6.99887 28.5432 6.67637 27.9774L1.13104 18.2489C0.80819 17.6825 0.80819 16.984 1.13104 16.4176L6.67637 6.68912C6.99887 6.12334 7.5928 5.7777 8.23246 5.7777L19.3231 5.7777C19.9628 5.7777 20.5567 6.12334 20.8792 6.68912Z" stroke="url(#paint1_linear_307_7162)" stroke-opacity="0.5" stroke-width="0.888889"/>
</g>
<path d="M13.8888 10.6118L19.1584 13.6541C19.2271 13.6938 19.2695 13.7672 19.2695 13.8466V19.9313C19.2695 20.0107 19.2271 20.0841 19.1584 20.1237L13.8888 23.1661C13.8201 23.2058 13.7354 23.2058 13.6666 23.1661L8.39711 20.1237C8.32836 20.0841 8.286 20.0107 8.286 19.9313V13.8466C8.286 13.7672 8.32836 13.6938 8.39711 13.6541L13.6666 10.6118C13.7354 10.5721 13.8201 10.5721 13.8888 10.6118Z" stroke="white" stroke-width="1.33333" stroke-linejoin="round"/>
<path d="M13.7778 10.8889V16.6667M13.7778 16.6667L8.44446 19.7778M13.7778 16.6667L19.1111 20" stroke="white" stroke-width="1.33333" stroke-linejoin="round"/>
<defs>
<filter id="filter0_b_307_7162" x="-17.3333" y="-12.4445" width="62.2222" height="59.5556" filterUnits="userSpaceOnUse" color-interpolation-filters="sRGB">
<feFlood flood-opacity="0" result="BackgroundImageFix"/>
<feGaussianBlur in="BackgroundImageFix" stdDeviation="8.88889"/>
<feComposite in2="SourceAlpha" operator="in" result="effect1_backgroundBlur_307_7162"/>
<feBlend mode="normal" in="SourceGraphic" in2="effect1_backgroundBlur_307_7162" result="shape"/>
</filter>
<linearGradient id="paint0_linear_307_7162" x1="5.95523" y1="8.18293" x2="30" y2="22.1171" gradientUnits="userSpaceOnUse">
<stop stop-color="#7BCFFF"/>
<stop offset="1" stop-color="#4885E0"/>
</linearGradient>
<linearGradient id="paint1_linear_307_7162" x1="6.5219" y1="-1.16278" x2="22.7023" y2="37.572" gradientUnits="userSpaceOnUse">
<stop stop-color="#FBFDFF"/>
<stop offset="0.0001" stop-color="#FBFDFF"/>
<stop offset="1" stop-color="#81A4CD"/>
</linearGradient>
</defs>
</svg>
