<svg width="120" height="93" viewBox="0 0 120 93" fill="none" xmlns="http://www.w3.org/2000/svg">
<rect x="11.5" y="3" width="94" height="84" stroke="#333333"/>
<circle cx="71" cy="11.5" r="2.5" stroke="#333333"/>
<circle cx="83" cy="11.5" r="2.5" stroke="#333333"/>
<circle cx="95" cy="11.5" r="2.5" stroke="#333333"/>
<line x1="19" y1="32" x2="98" y2="32" stroke="#333333"/>
<line x1="19" y1="21" x2="98" y2="21" stroke="#333333"/>
<line x1="19" y1="43" x2="58" y2="43" stroke="#333333"/>
<path d="M14 54H50C56.9036 54 62.5 59.5964 62.5 66.5V68.5C62.5 75.4036 56.9036 81 50 81H10.0922C6.73291 81 3.57638 82.6074 1.60052 85.3242L1.5 85.4624V78.5V66.5C1.5 59.5964 7.09644 54 14 54Z" fill="white" stroke="#333333"/>
<rect x="14" y="63.5" width="36" height="7" rx="3.5" fill="#3371D0"/>
<circle cx="108" cy="72.5" r="10.5" fill="white" stroke="#333333"/>
<circle cx="108" cy="72.5" r="6.5" fill="white" stroke="#333333"/>
<path d="M78.5 55H108.5V87.5C108.5 89.433 106.933 91 105 91H82C80.067 91 78.5 89.433 78.5 87.5V55Z" fill="white" stroke="#333333"/>
<path d="M87 42.5C85.5 44 85 45.2041 85 46.5C85 48.78 88 49.5 86.5 52.5" stroke="black" stroke-linecap="round" stroke-linejoin="round"/>
<path d="M94 42.5C92.5 44 92 45.2041 92 46.5C92 48.78 95 49.5 93.5 52.5" stroke="black" stroke-linecap="round" stroke-linejoin="round"/>
<path d="M101 42.5C99.5 44 99 45.2041 99 46.5C99 48.78 102 49.5 100.5 52.5" stroke="black" stroke-linecap="round" stroke-linejoin="round"/>
</svg>
