<svg width="110" height="121" viewBox="0 0 110 121" fill="none" xmlns="http://www.w3.org/2000/svg">
<mask id="path-1-inside-1_311_12244" fill="white">
<path fill-rule="evenodd" clip-rule="evenodd" d="M69.897 31.8596C64.1782 31.5142 59.647 26.7669 59.647 20.9612C59.647 15.4054 63.7967 10.8187 69.1657 10.1316C71.5359 4.47425 77.1255 0.5 83.6432 0.5C90.3676 0.5 96.104 4.73023 98.3364 10.6747C103.874 11.0328 108.255 15.6378 108.255 21.266C108.255 27.1278 103.503 31.8797 97.6411 31.8797C97.4535 31.8797 97.2671 31.8749 97.0819 31.8653V31.8797L83.6432 31.8797H70.5655L69.897 31.8797V31.8596Z"/>
</mask>
<path fill-rule="evenodd" clip-rule="evenodd" d="M69.897 31.8596C64.1782 31.5142 59.647 26.7669 59.647 20.9612C59.647 15.4054 63.7967 10.8187 69.1657 10.1316C71.5359 4.47425 77.1255 0.5 83.6432 0.5C90.3676 0.5 96.104 4.73023 98.3364 10.6747C103.874 11.0328 108.255 15.6378 108.255 21.266C108.255 27.1278 103.503 31.8797 97.6411 31.8797C97.4535 31.8797 97.2671 31.8749 97.0819 31.8653V31.8797L83.6432 31.8797H70.5655L69.897 31.8797V31.8596Z" fill="white"/>
<path d="M69.897 31.8596H70.897V30.9182L69.9573 30.8614L69.897 31.8596ZM69.1657 10.1316L69.2927 11.1235L69.8651 11.0503L70.0881 10.518L69.1657 10.1316ZM98.3364 10.6747L97.4002 11.0262L97.6273 11.6309L98.2718 11.6726L98.3364 10.6747ZM97.0819 31.8653L97.1337 30.8666L96.0819 30.812V31.8653H97.0819ZM97.0819 31.8797L97.0819 32.8797L98.0819 32.8797V31.8797H97.0819ZM83.6432 31.8797L83.6432 30.8797H83.6432V31.8797ZM70.5655 31.8797L70.5655 30.8797L70.5655 30.8797L70.5655 31.8797ZM69.897 31.8797H68.897V32.8798L69.897 32.8797L69.897 31.8797ZM69.9573 30.8614C64.7632 30.5477 60.647 26.2348 60.647 20.9612H58.647C58.647 27.299 63.5932 32.4807 69.8367 32.8578L69.9573 30.8614ZM60.647 20.9612C60.647 15.915 64.4164 11.7476 69.2927 11.1235L69.0388 9.13971C63.177 9.88985 58.647 14.8957 58.647 20.9612H60.647ZM70.0881 10.518C72.308 5.21928 77.5424 1.5 83.6432 1.5V-0.5C76.7085 -0.5 70.7638 3.72922 68.2434 9.74521L70.0881 10.518ZM83.6432 1.5C89.9375 1.5 95.3095 5.45909 97.4002 11.0262L99.2725 10.3231C96.8985 4.00137 90.7978 -0.5 83.6432 -0.5V1.5ZM98.2718 11.6726C103.287 11.9969 107.255 16.1685 107.255 21.266H109.255C109.255 15.1071 104.461 10.0687 98.4009 9.67676L98.2718 11.6726ZM107.255 21.266C107.255 26.5755 102.951 30.8797 97.6411 30.8797V32.8797C104.055 32.8797 109.255 27.6801 109.255 21.266H107.255ZM97.6411 30.8797C97.4708 30.8797 97.3016 30.8753 97.1337 30.8666L97.03 32.8639C97.2325 32.8744 97.4362 32.8797 97.6411 32.8797V30.8797ZM96.0819 31.8653V31.8797H98.0819V31.8653H96.0819ZM97.0819 30.8797L83.6432 30.8797L83.6432 32.8797L97.0819 32.8797L97.0819 30.8797ZM83.6432 30.8797H70.5655V32.8797H83.6432V30.8797ZM70.5655 30.8797L69.897 30.8797L69.897 32.8797L70.5655 32.8797L70.5655 30.8797ZM70.897 31.8797V31.8596H68.897V31.8797H70.897Z" fill="black" mask="url(#path-1-inside-1_311_12244)"/>
<mask id="path-3-inside-2_311_12244" fill="white">
<path fill-rule="evenodd" clip-rule="evenodd" d="M5.69355 84.0838C2.51694 83.8919 0 81.2549 0 78.0301C0 74.6805 2.71533 71.9652 6.06486 71.9652L6.10059 71.9653C6.69748 68.2988 9.87904 65.5 13.7143 65.5C17.6688 65.5 20.9284 68.4756 21.3761 72.3099C24.5061 72.4519 27 75.0344 27 78.1994C27 81.4554 24.3605 84.0949 21.1045 84.0949C21.0002 84.0949 20.8967 84.0922 20.7938 84.0869V84.0949L6.06486 84.0949L5.69355 84.0949V84.0838Z"/>
</mask>
<path fill-rule="evenodd" clip-rule="evenodd" d="M5.69355 84.0838C2.51694 83.8919 0 81.2549 0 78.0301C0 74.6805 2.71533 71.9652 6.06486 71.9652L6.10059 71.9653C6.69748 68.2988 9.87904 65.5 13.7143 65.5C17.6688 65.5 20.9284 68.4756 21.3761 72.3099C24.5061 72.4519 27 75.0344 27 78.1994C27 81.4554 24.3605 84.0949 21.1045 84.0949C21.0002 84.0949 20.8967 84.0922 20.7938 84.0869V84.0949L6.06486 84.0949L5.69355 84.0949V84.0838Z" fill="white"/>
<path d="M5.69355 84.0838H6.69355V83.1423L5.75383 83.0856L5.69355 84.0838ZM6.06486 71.9652L6.0678 70.9652H6.06486V71.9652ZM6.10059 71.9653L6.09765 72.9653L6.95055 72.9678L7.08759 72.126L6.10059 71.9653ZM21.3761 72.3099L20.3829 72.4259L20.4815 73.2704L21.3308 73.3089L21.3761 72.3099ZM20.7938 84.0869L20.8457 83.0882L19.7938 83.0336V84.0869H20.7938ZM20.7938 84.0949L20.7938 85.0949L21.7938 85.0949V84.0949H20.7938ZM6.06486 84.0949L6.06486 83.0949L6.06485 83.0949L6.06486 84.0949ZM5.69355 84.0949H4.69355V85.0949L5.69355 85.0949L5.69355 84.0949ZM5.75383 83.0856C3.10192 82.9254 1 80.7228 1 78.0301H-1C-1 81.787 1.93196 84.8584 5.63326 85.0819L5.75383 83.0856ZM1 78.0301C1 75.2328 3.26761 72.9652 6.06486 72.9652V70.9652C2.16305 70.9652 -1 74.1283 -1 78.0301H1ZM6.06192 72.9652L6.09765 72.9653L6.10352 70.9653L6.0678 70.9652L6.06192 72.9652ZM7.08759 72.126C7.60698 68.9355 10.3772 66.5 13.7143 66.5V64.5C9.38091 64.5 5.78798 67.662 5.11358 71.8046L7.08759 72.126ZM13.7143 66.5C17.1555 66.5 19.9933 69.0897 20.3829 72.4259L22.3694 72.194C21.8635 67.8615 18.1822 64.5 13.7143 64.5V66.5ZM21.3308 73.3089C23.9291 73.4268 26 75.5715 26 78.1994H28C28 74.4973 25.083 71.477 21.4214 71.311L21.3308 73.3089ZM26 78.1994C26 80.9031 23.8082 83.0949 21.1045 83.0949V85.0949C24.9128 85.0949 28 82.0077 28 78.1994H26ZM21.1045 83.0949C21.0175 83.0949 20.9313 83.0927 20.8457 83.0882L20.742 85.0855C20.8621 85.0918 20.983 85.0949 21.1045 85.0949V83.0949ZM19.7938 84.0869V84.0949H21.7938V84.0869H19.7938ZM20.7938 83.0949L6.06486 83.0949L6.06486 85.0949L20.7938 85.0949L20.7938 83.0949ZM6.06485 83.0949L5.69354 83.0949L5.69355 85.0949L6.06486 85.0949L6.06485 83.0949ZM6.69355 84.0949V84.0838H4.69355V84.0949H6.69355Z" fill="black" mask="url(#path-3-inside-2_311_12244)"/>
<rect x="19.5" y="25" width="64" height="73" fill="white" stroke="#333333"/>
<rect x="25.5" y="19" width="64" height="73" fill="white" stroke="#333333"/>
<line x1="33" y1="45" x2="81" y2="45" stroke="#333333"/>
<line x1="6" y1="112" x2="94" y2="112" stroke="#333333"/>
<line x1="46" y1="120" x2="60" y2="120" stroke="#333333"/>
<line x1="71" y1="120" x2="104" y2="120" stroke="#333333"/>
<line x1="33" y1="34" x2="81" y2="34" stroke="#333333"/>
<line x1="33" y1="56" x2="56" y2="56" stroke="#333333"/>
<circle cx="83" cy="86.5" r="17" fill="#3371D0"/>
<circle cx="83" cy="86.5" r="12" fill="white"/>
<line x1="94.3536" y1="98.1464" x2="104.354" y2="108.146" stroke="black"/>
</svg>
