<svg width="32" height="32" viewBox="0 0 32 32" fill="none" xmlns="http://www.w3.org/2000/svg">
<g opacity="0.4">
<path fill-rule="evenodd" clip-rule="evenodd" d="M7.96671 14.7579L1.81959 18.1758L8.27724 21.8277L14.8457 18.1751L8.69993 14.7579C8.58775 14.698 8.46159 14.6666 8.33332 14.6666C8.20506 14.6666 8.0789 14.698 7.96671 14.7579ZM15.3333 19.4296L8.94117 22.9841V29.7746L14.9667 26.4242C15.0767 26.3619 15.1681 26.2733 15.2323 26.1671C15.2965 26.0609 15.3313 25.9406 15.3333 25.8178V19.4296ZM7.60782 22.9809V29.7091L1.69998 26.4242C1.58999 26.3619 1.4985 26.2733 1.4343 26.1671C1.3701 26.0609 1.33535 25.9406 1.33337 25.8178V19.4327L7.60782 22.9809Z" fill="#215ED9"/>
<path fill-rule="evenodd" clip-rule="evenodd" d="M23.9667 14.7579L17.8196 18.1758L24.2772 21.8277L30.8457 18.1751L24.6999 14.7579C24.5877 14.698 24.4616 14.6666 24.3333 14.6666C24.2051 14.6666 24.0789 14.698 23.9667 14.7579ZM31.3333 19.4296L24.9412 22.9841V29.7746L30.9667 26.4242C31.0767 26.3619 31.1681 26.2733 31.2323 26.1671C31.2965 26.0609 31.3313 25.9406 31.3333 25.8178V19.4296ZM23.6078 22.9809V29.7091L17.7 26.4242C17.59 26.3619 17.4985 26.2733 17.4343 26.1671C17.3701 26.0609 17.3353 25.9406 17.3334 25.8178V19.4327L23.6078 22.9809Z" fill="#215ED9"/>
<path fill-rule="evenodd" clip-rule="evenodd" d="M15.9667 1.42464L9.81959 4.8426L16.2772 8.49443L22.8457 4.84184L16.6999 1.42464C16.5877 1.36478 16.4616 1.33337 16.3333 1.33337C16.2051 1.33337 16.0789 1.36478 15.9667 1.42464ZM23.3333 6.09633L16.9412 9.65085V16.4413L22.9667 13.091C23.0767 13.0286 23.1681 12.9401 23.2323 12.8339C23.2965 12.7277 23.3313 12.6074 23.3333 12.4845V6.09633ZM15.6078 9.64764V16.3759L9.69998 13.091C9.58999 13.0286 9.4985 12.9401 9.4343 12.8339C9.3701 12.7277 9.33535 12.6074 9.33337 12.4845V6.0994L15.6078 9.64764Z" fill="#215ED9"/>
</g>
</svg>
