<svg width="32" height="32" viewBox="0 0 32 32" fill="none" xmlns="http://www.w3.org/2000/svg">
<g opacity="0.4">
<path fill-rule="evenodd" clip-rule="evenodd" d="M16 31.3333C24.1002 31.3333 30.6666 24.7668 30.6666 16.6667C30.6666 8.56649 24.1002 2 16 2C7.8998 2 1.33331 8.56649 1.33331 16.6667C1.33331 24.7668 7.8998 31.3333 16 31.3333ZM7.83331 13.3333C7.83331 12.5049 8.50489 11.8333 9.33331 11.8333H19.0453L18.2727 11.0607C17.6869 10.4749 17.6869 9.52513 18.2727 8.93934C18.8584 8.35355 19.8082 8.35355 20.394 8.93934L23.7273 12.2727C24.1563 12.7017 24.2846 13.3468 24.0525 13.9074C23.8203 14.4679 23.2733 14.8333 22.6666 14.8333L9.33331 14.8333C8.50489 14.8333 7.83331 14.1618 7.83331 13.3333ZM22.6666 21.5C23.4951 21.5 24.1666 20.8284 24.1666 20C24.1666 19.1716 23.4951 18.5 22.6666 18.5H9.33331C8.72662 18.5 8.17966 18.8655 7.94749 19.426C7.71532 19.9865 7.84365 20.6317 8.27265 21.0607L11.606 24.394C12.1918 24.9798 13.1415 24.9798 13.7273 24.394C14.3131 23.8082 14.3131 22.8585 13.7273 22.2727L12.9546 21.5H22.6666Z" fill="#215ED9"/>
</g>
</svg>
