<?xml version="1.0" encoding="UTF-8"?>
<svg width="40px" height="40px" viewBox="0 0 40 40" version="1.1" xmlns="http://www.w3.org/2000/svg" xmlns:xlink="http://www.w3.org/1999/xlink">
    <!-- Generator: Sketch 63.1 (92452) - https://sketch.com -->
    <title>eth.b2289878</title>
    <desc>Created with Sketch.</desc>
    <g id="crest" stroke="none" stroke-width="1" fill="none" fill-rule="evenodd">
        <g id="Earn-未连接钱包" transform="translate(-478.000000, -465.000000)" fill-rule="nonzero">
            <g id="编组-11" transform="translate(410.000000, 120.000000)">
                <g id="编组-21">
                    <g id="编组-20" transform="translate(48.000000, 35.000000)">
                        <g id="编组-15" transform="translate(0.000000, 280.000000)">
                            <g id="eth.b2289878" transform="translate(20.000000, 30.000000)">
                                <circle id="椭圆形" fill="#7B88FF" cx="19.6380439" cy="19.6380439" r="19.6380439"></circle>
                                <g id="编组-14" transform="translate(11.551790, 6.931074)" fill="#FFFFFF">
                                    <polygon id="路径-3" opacity="0.5" points="0 12.6953011 7.70119368 0 7.70119368 9.35781249"></polygon>
                                    <polygon id="路径-3" opacity="0.7" transform="translate(11.551790, 6.347651) scale(-1, 1) translate(-11.551790, -6.347651) " points="7.70119306 12.6953011 15.4023867 0 15.4023867 9.35781249"></polygon>
                                    <polygon id="路径-3" transform="translate(11.551790, 13.442084) scale(-1, 1) translate(-11.551790, -13.442084) " points="7.70119306 12.9587393 15.4023867 9.70817143 15.3803938 17.1759956"></polygon>
                                    <polygon id="路径-3" transform="translate(11.551790, 19.416343) scale(-1, 1) translate(-11.551790, -19.416343) " points="7.70119306 14.188866 15.4023867 18.6271607 15.3803938 24.6438198"></polygon>
                                    <polygon id="路径-3" opacity="0.5" points="0 14.188866 7.70119368 18.6271607 7.67920077 24.6438198"></polygon>
                                    <polygon id="路径-3" opacity="0.7" points="2.32013954e-13 12.9587393 7.70119368 9.70817143 7.70119368 17.1759956"></polygon>
                                </g>
                            </g>
                        </g>
                    </g>
                </g>
            </g>
        </g>
    </g>
</svg>