<svg width="16" height="16" viewBox="0 0 16 16" fill="none" xmlns="http://www.w3.org/2000/svg">
<path fill-rule="evenodd" clip-rule="evenodd" d="M8 15C11.866 15 15 11.866 15 8C15 4.13401 11.866 1 8 1C4.13401 1 1 4.13401 1 8C1 11.866 4.13401 15 8 15ZM8.79999 4.6C8.79999 5.04183 8.44181 5.4 7.99999 5.4C7.55816 5.4 7.19999 5.04183 7.19999 4.6C7.19999 4.15817 7.55816 3.8 7.99999 3.8C8.44181 3.8 8.79999 4.15817 8.79999 4.6ZM7.25 7.25C7.25 6.83579 7.58579 6.5 8 6.5C8.41421 6.5 8.75 6.83579 8.75 7.25L8.75 11.75C8.75 12.1642 8.41421 12.5 8 12.5C7.58579 12.5 7.25 12.1642 7.25 11.75V7.25Z" fill="#215ED9"/>
</svg>
